<svg xmlns="http://www.w3.org/2000/svg" width="300" height="200" viewBox="0 0 300 200"><path d="M162 76L198 85V126Q198 146 180 160Q162 144 162 124Z" fill="#171e1b" stroke="#737b68" stroke-width="2.4" stroke-linecap="round" stroke-linejoin="round" /><path d="M170 92L190 97" fill="none" stroke="#737b68" stroke-width="1.2" stroke-linecap="round" stroke-linejoin="round" /><path d="M182 61L218 70V111Q218 131 200 145Q182 129 182 109Z" fill="#171e1b" stroke="#d5ad63" stroke-width="2.4" stroke-linecap="round" stroke-linejoin="round" /><path d="M190 77L210 82" fill="none" stroke="#737b68" stroke-width="1.2" stroke-linecap="round" stroke-linejoin="round" /><path d="M205 46L241 55V96Q241 116 223 130Q205 114 205 94Z" fill="#171e1b" stroke="#e8dec1" stroke-width="2.4" stroke-linecap="round" stroke-linejoin="round" /><path d="M213 62L233 67" fill="none" stroke="#737b68" stroke-width="1.2" stroke-linecap="round" stroke-linejoin="round" /><g transform="translate(273 87) rotate(180) scale(0.83)" opacity="1"><path d="M-12 -4H6L14 0L6 4H-12Z" fill="#d77859" stroke="#171e1b" stroke-width="1" stroke-linecap="round" stroke-linejoin="round" /><path d="M-6 -3L-6 3" fill="none" stroke="#171e1b" stroke-width="1.2" stroke-linecap="round" stroke-linejoin="round" /><path d="M-19 0L-15 0" fill="none" stroke="#d77859" stroke-width="1.6" stroke-linecap="round" stroke-linejoin="round" /></g><path d="M246 91L257 77M248 97L266 100M244 103L257 117" fill="none" stroke="#d5ad63" stroke-width="2.5" stroke-linecap="round" stroke-linejoin="round" /><g transform="translate(237 160) rotate(0) scale(0.95)" opacity="1"><path d="M-3 -10H3V-3H10V3H3V10H-3V3H-10V-3H-3Z" fill="#a9c2a3" stroke="#171e1b" stroke-width="1.8" stroke-linecap="round" stroke-linejoin="round" /></g></svg>