<svg xmlns="http://www.w3.org/2000/svg" width="300" height="200" viewBox="0 0 300 200"><g transform="translate(151 107) rotate(0) scale(0.47)" opacity="1"><path d="M-10 -24L-8 -35L1 -39L9 -33L7 -23L-1 -18Z" fill="#d77859" stroke="#171e1b" stroke-width="1.8" stroke-linecap="round" stroke-linejoin="round" /><path d="M-5 -20L7 -19L17 -3L9 12L-9 9L-16 -6Z" fill="#d77859" stroke="#171e1b" stroke-width="1.8" stroke-linecap="round" stroke-linejoin="round" /><path d="M-9 -17L-19 -6L-27 -3L-25 4L-11 1L-1 -9M10 -12L18 -4L27 -10L31 -5L19 5L8 -1" fill="#d77859" stroke="#171e1b" stroke-width="1.8" stroke-linecap="round" stroke-linejoin="round" /><path d="M-8 7L-15 23L-13 39H-3L-7 33L-4 21L1 16L8 29L5 40H16L20 27L10 9Z" fill="#d77859" stroke="#171e1b" stroke-width="1.8" stroke-linecap="round" stroke-linejoin="round" /><path d="M-3 -29L4 -28" fill="none" stroke="#171e1b" stroke-width="2.4" stroke-linecap="round" stroke-linejoin="round" /><path d="M-5 -9L1 -3L-4 5" fill="none" stroke="#171e1b" stroke-width="1.7" stroke-linecap="round" stroke-linejoin="round" /></g><g transform="translate(204 58) rotate(0) scale(0.47)" opacity="1"><path d="M-10 -24L-8 -35L1 -39L9 -33L7 -23L-1 -18Z" fill="#d77859" stroke="#171e1b" stroke-width="1.8" stroke-linecap="round" stroke-linejoin="round" /><path d="M-5 -20L7 -19L17 -3L9 12L-9 9L-16 -6Z" fill="#d77859" stroke="#171e1b" stroke-width="1.8" stroke-linecap="round" stroke-linejoin="round" /><path d="M-9 -17L-19 -6L-27 -3L-25 4L-11 1L-1 -9M10 -12L18 -4L27 -10L31 -5L19 5L8 -1" fill="#d77859" stroke="#171e1b" stroke-width="1.8" stroke-linecap="round" stroke-linejoin="round" /><path d="M-8 7L-15 23L-13 39H-3L-7 33L-4 21L1 16L8 29L5 40H16L20 27L10 9Z" fill="#d77859" stroke="#171e1b" stroke-width="1.8" stroke-linecap="round" stroke-linejoin="round" /><path d="M-3 -29L4 -28" fill="none" stroke="#171e1b" stroke-width="2.4" stroke-linecap="round" stroke-linejoin="round" /><path d="M-5 -9L1 -3L-4 5" fill="none" stroke="#171e1b" stroke-width="1.7" stroke-linecap="round" stroke-linejoin="round" /></g><g transform="translate(262 106) rotate(0) scale(0.47)" opacity="1"><path d="M-10 -24L-8 -35L1 -39L9 -33L7 -23L-1 -18Z" fill="#d77859" stroke="#171e1b" stroke-width="1.8" stroke-linecap="round" stroke-linejoin="round" /><path d="M-5 -20L7 -19L17 -3L9 12L-9 9L-16 -6Z" fill="#d77859" stroke="#171e1b" stroke-width="1.8" stroke-linecap="round" stroke-linejoin="round" /><path d="M-9 -17L-19 -6L-27 -3L-25 4L-11 1L-1 -9M10 -12L18 -4L27 -10L31 -5L19 5L8 -1" fill="#d77859" stroke="#171e1b" stroke-width="1.8" stroke-linecap="round" stroke-linejoin="round" /><path d="M-8 7L-15 23L-13 39H-3L-7 33L-4 21L1 16L8 29L5 40H16L20 27L10 9Z" fill="#d77859" stroke="#171e1b" stroke-width="1.8" stroke-linecap="round" stroke-linejoin="round" /><path d="M-3 -29L4 -28" fill="none" stroke="#171e1b" stroke-width="2.4" stroke-linecap="round" stroke-linejoin="round" /><path d="M-5 -9L1 -3L-4 5" fill="none" stroke="#171e1b" stroke-width="1.7" stroke-linecap="round" stroke-linejoin="round" /></g><g transform="translate(208 153) rotate(0) scale(0.47)" opacity="1"><path d="M-10 -24L-8 -35L1 -39L9 -33L7 -23L-1 -18Z" fill="#d77859" stroke="#171e1b" stroke-width="1.8" stroke-linecap="round" stroke-linejoin="round" /><path d="M-5 -20L7 -19L17 -3L9 12L-9 9L-16 -6Z" fill="#d77859" stroke="#171e1b" stroke-width="1.8" stroke-linecap="round" stroke-linejoin="round" /><path d="M-9 -17L-19 -6L-27 -3L-25 4L-11 1L-1 -9M10 -12L18 -4L27 -10L31 -5L19 5L8 -1" fill="#d77859" stroke="#171e1b" stroke-width="1.8" stroke-linecap="round" stroke-linejoin="round" /><path d="M-8 7L-15 23L-13 39H-3L-7 33L-4 21L1 16L8 29L5 40H16L20 27L10 9Z" fill="#d77859" stroke="#171e1b" stroke-width="1.8" stroke-linecap="round" stroke-linejoin="round" /><path d="M-3 -29L4 -28" fill="none" stroke="#171e1b" stroke-width="2.4" stroke-linecap="round" stroke-linejoin="round" /><path d="M-5 -9L1 -3L-4 5" fill="none" stroke="#171e1b" stroke-width="1.7" stroke-linecap="round" stroke-linejoin="round" /></g><path d="M153 98L172 75L184 83L202 51" fill="none" stroke="#b4d5cc" stroke-width="2.6" stroke-linecap="round" stroke-linejoin="round" /><path d="M209 54L231 62L226 79L260 98" fill="none" stroke="#b4d5cc" stroke-width="2.6" stroke-linecap="round" stroke-linejoin="round" /><path d="M260 106L253 128L231 124L211 144" fill="none" stroke="#b4d5cc" stroke-width="2.6" stroke-linecap="round" stroke-linejoin="round" /><path d="M203 143L179 140L181 122L151 101" fill="none" stroke="#b4d5cc" stroke-width="2.6" stroke-linecap="round" stroke-linejoin="round" /><path d="M134 59V38M129 43H139M129 50H139" fill="none" stroke="#e8dec1" stroke-width="2.3" stroke-linecap="round" stroke-linejoin="round" /><path d="M282 64V43M277 48H287M277 55H287" fill="none" stroke="#e8dec1" stroke-width="2.3" stroke-linecap="round" stroke-linejoin="round" /><path d="M281 173V152M276 157H286M276 164H286" fill="none" stroke="#e8dec1" stroke-width="2.3" stroke-linecap="round" stroke-linejoin="round" /><path d="M140 173V152M135 157H145M135 164H145" fill="none" stroke="#e8dec1" stroke-width="2.3" stroke-linecap="round" stroke-linejoin="round" /><path d="M136 48L151 35L173 42M283 69L274 79L284 90M149 175L162 181L176 175" fill="none" stroke="#b4d5cc" stroke-width="2" stroke-linecap="round" stroke-linejoin="round" /></svg>